<?xml version="1.0" encoding="utf-8"?>
<!-- Generator: Adobe Illustrator 16.0.4, SVG Export Plug-In . SVG Version: 6.00 Build 0)  -->
<!DOCTYPE svg PUBLIC "-//W3C//DTD SVG 1.1//EN" "http://www.w3.org/Graphics/SVG/1.1/DTD/svg11.dtd">
<svg version="1.1" id="Layer_1" xmlns="http://www.w3.org/2000/svg" xmlns:xlink="http://www.w3.org/1999/xlink" x="0px" y="0px"
	 width="240px" height="29.77px" viewBox="0 0 240 29.77" enable-background="new 0 0 240 29.77" xml:space="preserve">
<g enable-background="new    ">
	<path fill="#FFFFFF" d="M16.776,15.508v7.543h-2.685V5.253h2.685v7.557h3.239V5.253h2.685v17.798h-2.685v-7.543H16.776z"/>
	<path fill="#FFFFFF" d="M29.318,5.025c1.184,0,2.19,0.417,3.019,1.25s1.243,1.837,1.243,3.011v9.717
		c0,1.184-0.417,2.189-1.25,3.018c-0.833,0.829-1.837,1.243-3.011,1.243c-1.184,0-2.188-0.416-3.011-1.25
		c-0.824-0.833-1.236-1.837-1.236-3.011V9.286c0-1.184,0.417-2.189,1.25-3.018C27.154,5.439,28.154,5.025,29.318,5.025z
		 M30.781,9.229c0-0.426-0.149-0.788-0.447-1.086c-0.298-0.299-0.661-0.448-1.086-0.448c-0.426,0-0.791,0.149-1.094,0.448
		c-0.303,0.298-0.455,0.66-0.455,1.086v9.744c0,0.427,0.151,0.789,0.455,1.087c0.303,0.299,0.667,0.447,1.094,0.447
		c0.426,0,0.788-0.148,1.086-0.447c0.298-0.298,0.447-0.66,0.447-1.087V9.229z"/>
	<path fill="#FFFFFF" d="M38.622,23.051h-2.685V5.238h3.853l2.502,12.796l2.402-12.796h3.701v17.812H45.71V11.857l-2.329,11.193
		h-2.159l-2.6-11.165V23.051z"/>
	<path fill="#FFFFFF" d="M50.795,23.051V5.238h7.642v2.699h-4.958v4.857h3.622v2.699h-3.622v4.857h4.958v2.699H50.795z"/>
</g>
<g enable-background="new    ">
	<path fill="#FFFFFF" d="M87.019,18.619c0.019,1.24-0.303,2.301-0.966,3.182c-0.436,0.597-1.051,1.018-1.847,1.265
		c-0.426,0.132-0.923,0.198-1.492,0.198c-1.051,0-1.922-0.26-2.614-0.781c-0.578-0.426-1.035-1.006-1.371-1.74
		c-0.336-0.733-0.533-1.574-0.589-2.521l2.557-0.186c0.114,1.038,0.388,1.79,0.824,2.256c0.322,0.353,0.691,0.52,1.108,0.5
		c0.587-0.019,1.056-0.308,1.406-0.867c0.18-0.274,0.27-0.668,0.27-1.18c0-0.739-0.336-1.474-1.008-2.204
		c-0.53-0.502-1.326-1.256-2.386-2.26c-0.891-0.863-1.52-1.636-1.889-2.318c-0.398-0.768-0.597-1.602-0.597-2.502
		c0-1.62,0.544-2.848,1.633-3.683c0.672-0.502,1.506-0.753,2.5-0.753c0.957,0,1.776,0.213,2.458,0.639
		c0.53,0.332,0.959,0.796,1.286,1.393s0.523,1.283,0.589,2.06L84.32,9.585c-0.076-0.729-0.284-1.298-0.625-1.705
		C83.449,7.587,83.094,7.44,82.63,7.44c-0.493,0-0.867,0.218-1.123,0.653c-0.208,0.35-0.312,0.786-0.312,1.307
		c0,0.814,0.351,1.643,1.051,2.485c0.265,0.322,0.663,0.701,1.193,1.137c0.625,0.521,1.037,0.886,1.236,1.094
		c0.663,0.663,1.174,1.316,1.534,1.96c0.17,0.304,0.308,0.583,0.412,0.838C86.877,17.549,87.009,18.117,87.019,18.619z"/>
	<path fill="#FFFFFF" d="M93.467,23.278c-1.184,0-2.19-0.414-3.019-1.243c-0.829-0.828-1.243-1.83-1.243-3.004V9.315
		c0-1.185,0.417-2.19,1.25-3.019c0.833-0.829,1.837-1.243,3.011-1.243c1.184,0,2.188,0.417,3.011,1.25
		c0.824,0.833,1.236,1.837,1.236,3.012v2.031h-2.784V9.258c0-0.426-0.152-0.79-0.455-1.094c-0.303-0.303-0.668-0.454-1.094-0.454
		c-0.426,0-0.789,0.151-1.087,0.454c-0.298,0.304-0.447,0.668-0.447,1.094v9.745c0,0.426,0.149,0.788,0.447,1.086
		c0.298,0.299,0.661,0.447,1.087,0.447c0.426,0,0.791-0.148,1.094-0.447c0.303-0.298,0.455-0.66,0.455-1.086v-2.458h2.784v2.486
		c0,1.184-0.417,2.188-1.25,3.011C95.631,22.866,94.632,23.278,93.467,23.278z"/>
	<path fill="#FFFFFF" d="M102.601,15.508v7.543h-2.685V5.253h2.685v7.557h3.239V5.253h2.685v17.798h-2.685v-7.543H102.601z"/>
	<path fill="#FFFFFF" d="M110.924,23.051V5.238h7.642v2.699h-4.958v4.857h3.622v2.699h-3.622v4.857h4.958v2.699H110.924z"/>
	<path fill="#FFFFFF" d="M128.85,18.789c0,1.175-0.412,2.179-1.235,3.012s-1.818,1.25-2.983,1.25h-4.218V5.238h4.218
		c1.174,0,2.172,0.417,2.99,1.25c0.819,0.833,1.229,1.832,1.229,2.997V18.789z M123.098,20.394h1.619
		c0.426,0,0.785-0.154,1.079-0.462s0.44-0.67,0.44-1.086V9.528c0-0.427-0.148-0.791-0.447-1.094
		c-0.299-0.304-0.656-0.455-1.072-0.455h-1.619V20.394z"/>
	<path fill="#FFFFFF" d="M135.441,23.25c-1.184,0-2.188-0.412-3.012-1.236c-0.824-0.823-1.236-1.822-1.236-2.997V5.253h2.629v13.735
		c0,0.426,0.15,0.788,0.454,1.087c0.303,0.298,0.667,0.447,1.094,0.447c0.426,0,0.788-0.149,1.087-0.447
		c0.298-0.299,0.447-0.661,0.447-1.087V5.253h2.798v13.764c0,1.193-0.417,2.197-1.25,3.012S136.615,23.25,135.441,23.25z"/>
	<path fill="#FFFFFF" d="M149.404,23.051h-7.316V5.253h2.686V20.38h4.631V23.051z"/>
	<path fill="#FFFFFF" d="M151.25,23.051V5.238h7.643v2.699h-4.958v4.857h3.622v2.699h-3.622v4.857h4.958v2.699H151.25z"/>
</g>
<g enable-background="new    ">
	<path fill="#FFFFFF" d="M176.99,5.252c1.307,0,2.349,0.411,3.125,1.235c0.72,0.786,1.08,1.79,1.08,3.012v2.585
		c0,1.174-0.41,2.178-1.229,3.012c-0.82,0.833-1.812,1.25-2.977,1.25h-1.549v6.704h-2.684V5.252H176.99z M178.596,9.541
		c0-0.464-0.141-0.838-0.42-1.122s-0.65-0.426-1.115-0.426h-1.619v5.696h1.619c0.427,0,0.789-0.151,1.088-0.455
		c0.298-0.303,0.447-0.668,0.447-1.094V9.541z"/>
	<path fill="#FFFFFF" d="M187.572,5.252c1.496,0,2.595,0.411,3.295,1.235c0.616,0.72,0.924,1.724,0.924,3.012v2.585
		c0,1.26-0.479,2.325-1.435,3.196l1.988,7.77h-2.903l-1.627-6.704c-0.076,0-0.156,0-0.242,0h-1.549v6.704h-2.684V5.252H187.572z
		 M189.178,9.541c0-1.032-0.512-1.548-1.535-1.548h-1.619v5.696h1.619c0.427,0,0.789-0.151,1.088-0.455
		c0.298-0.303,0.447-0.668,0.447-1.094V9.541z"/>
	<path fill="#FFFFFF" d="M197.33,23.05h-2.684V5.252h2.684V23.05z"/>
	<path fill="#FFFFFF" d="M203.964,23.277c-1.184,0-2.19-0.414-3.019-1.243c-0.828-0.828-1.242-1.83-1.242-3.004V9.314
		c0-1.185,0.416-2.19,1.25-3.019c0.832-0.829,1.836-1.243,3.011-1.243c1.184,0,2.188,0.417,3.011,1.25
		c0.824,0.833,1.236,1.837,1.236,3.012v2.031h-2.783V9.257c0-0.426-0.152-0.79-0.455-1.094c-0.303-0.303-0.668-0.454-1.094-0.454
		s-0.789,0.151-1.087,0.454c-0.298,0.304-0.447,0.668-0.447,1.094v9.745c0,0.426,0.149,0.788,0.447,1.086
		c0.298,0.299,0.661,0.447,1.087,0.447s0.791-0.148,1.094-0.447c0.303-0.298,0.455-0.66,0.455-1.086v-2.458h2.783v2.486
		c0,1.184-0.416,2.188-1.25,3.011C206.128,22.865,205.129,23.277,203.964,23.277z"/>
	<path fill="#FFFFFF" d="M210.412,23.05V5.237h7.643v2.699h-4.957v4.857h3.621v2.699h-3.621v4.857h4.957v2.699H210.412z"/>
	<path fill="#FFFFFF" d="M228.779,18.618c0.018,1.24-0.304,2.301-0.967,3.182c-0.436,0.597-1.051,1.018-1.846,1.265
		c-0.427,0.132-0.924,0.198-1.492,0.198c-1.051,0-1.922-0.26-2.613-0.781c-0.578-0.426-1.035-1.006-1.371-1.74
		c-0.336-0.733-0.533-1.574-0.59-2.521l2.557-0.186c0.114,1.038,0.389,1.79,0.824,2.256c0.322,0.353,0.691,0.52,1.108,0.5
		c0.587-0.019,1.056-0.308,1.406-0.867c0.18-0.274,0.27-0.668,0.27-1.18c0-0.739-0.336-1.474-1.009-2.204
		c-0.529-0.502-1.326-1.256-2.386-2.26c-0.891-0.863-1.521-1.636-1.89-2.318c-0.397-0.768-0.596-1.602-0.596-2.502
		c0-1.62,0.544-2.848,1.633-3.683c0.672-0.502,1.506-0.753,2.5-0.753c0.957,0,1.775,0.213,2.457,0.639
		c0.531,0.332,0.959,0.796,1.286,1.393s0.522,1.283,0.589,2.06l-2.57,0.469c-0.076-0.729-0.284-1.298-0.625-1.705
		c-0.246-0.293-0.602-0.439-1.065-0.439c-0.493,0-0.866,0.218-1.122,0.653c-0.209,0.35-0.312,0.786-0.312,1.307
		c0,0.814,0.35,1.643,1.051,2.485c0.266,0.322,0.662,0.701,1.193,1.137c0.625,0.521,1.037,0.886,1.236,1.094
		c0.662,0.663,1.174,1.316,1.533,1.96c0.171,0.304,0.309,0.583,0.412,0.838C228.637,17.548,228.77,18.116,228.779,18.618z"/>
</g>
</svg>
