<?xml version="1.0" encoding="utf-8"?>
<!-- Generator: Adobe Illustrator 16.0.4, SVG Export Plug-In . SVG Version: 6.00 Build 0)  -->
<!DOCTYPE svg PUBLIC "-//W3C//DTD SVG 1.1//EN" "http://www.w3.org/Graphics/SVG/1.1/DTD/svg11.dtd">
<svg version="1.1" id="Layer_1" xmlns="http://www.w3.org/2000/svg" xmlns:xlink="http://www.w3.org/1999/xlink" x="0px" y="0px"
	 width="143px" height="37.438px" viewBox="0 0 143 37.438" enable-background="new 0 0 143 37.438" xml:space="preserve">
<path fill="#BFC1C1" d="M143,23.825c0,7.518-5.021,13.613-11.216,13.613H11.216C5.021,37.438,0,31.343,0,23.825V13.614
	C0,6.095,5.021,0,11.216,0h120.568C137.979,0,143,6.095,143,13.614V23.825z"/>
<g>
	<path d="M52.844,30.104H41.811V3.261h4.049v22.816h6.984V30.104z"/>
	<path d="M62.034,2.918c1.785,0,3.303,0.628,4.553,1.885s1.875,2.771,1.875,4.542v14.654c0,1.785-0.629,3.303-1.886,4.552
		c-1.257,1.25-2.771,1.875-4.542,1.875c-1.785,0-3.299-0.628-4.541-1.885c-1.243-1.257-1.864-2.771-1.864-4.542V9.345
		c0-1.785,0.628-3.303,1.886-4.553C58.771,3.543,60.278,2.918,62.034,2.918z M64.241,9.259c0-0.643-0.225-1.188-0.675-1.639
		s-0.996-0.675-1.639-0.675S60.734,7.17,60.278,7.62c-0.458,0.45-0.687,0.996-0.687,1.639v14.697c0,0.643,0.229,1.188,0.687,1.639
		c0.456,0.45,1.007,0.675,1.649,0.675s1.188-0.225,1.639-0.675s0.675-0.996,0.675-1.639V9.259z"/>
	<path d="M78.38,30.447c-1.785,0-3.303-0.628-4.552-1.886c-1.25-1.256-1.875-2.764-1.875-4.52V9.388
		c0-1.785,0.628-3.303,1.886-4.553c1.256-1.249,2.771-1.874,4.541-1.874c1.785,0,3.3,0.628,4.542,1.885
		c1.243,1.257,1.864,2.771,1.864,4.542v3.063h-4.199V9.302c0-0.643-0.229-1.192-0.686-1.649s-1.007-0.686-1.649-0.686
		s-1.189,0.229-1.64,0.686c-0.449,0.457-0.675,1.007-0.675,1.649v14.697c0,0.643,0.226,1.188,0.675,1.639
		c0.45,0.45,0.997,0.675,1.64,0.675s1.192-0.225,1.649-0.673s0.686-0.993,0.686-1.635v-5.276h-2.25v-4.07h6.449v9.384
		c0,1.785-0.629,3.299-1.886,4.541C81.644,29.826,80.137,30.447,78.38,30.447z"/>
	<path d="M94.64,2.918c1.785,0,3.303,0.628,4.553,1.885s1.875,2.771,1.875,4.542v14.654c0,1.785-0.629,3.303-1.886,4.552
		c-1.257,1.25-2.771,1.875-4.542,1.875c-1.785,0-3.299-0.628-4.541-1.885c-1.243-1.257-1.864-2.771-1.864-4.542V9.345
		c0-1.785,0.628-3.303,1.886-4.553C91.376,3.543,92.884,2.918,94.64,2.918z M96.847,9.259c0-0.643-0.225-1.188-0.675-1.639
		s-0.996-0.675-1.639-0.675S93.34,7.17,92.884,7.62c-0.458,0.45-0.687,0.996-0.687,1.639v14.697c0,0.643,0.229,1.188,0.687,1.639
		c0.456,0.45,1.007,0.675,1.649,0.675s1.188-0.225,1.639-0.675s0.675-0.996,0.675-1.639V9.259z"/>
</g>
</svg>
