<?xml version="1.0" encoding="utf-8"?>
<!-- Generator: Adobe Illustrator 16.0.4, SVG Export Plug-In . SVG Version: 6.00 Build 0)  -->
<!DOCTYPE svg PUBLIC "-//W3C//DTD SVG 1.1//EN" "http://www.w3.org/Graphics/SVG/1.1/DTD/svg11.dtd">
<svg version="1.1" id="Layer_1" xmlns="http://www.w3.org/2000/svg" xmlns:xlink="http://www.w3.org/1999/xlink" x="0px" y="0px"
	 width="87.667px" height="37px" viewBox="0 0 87.667 37" enable-background="new 0 0 87.667 37" xml:space="preserve">
<g>
	<path fill="#9F9F9F" d="M86.689,30.464c0,2.75-2.25,5-5,5H5.977c-2.75,0-5-2.25-5-5V6.535c0-2.75,2.25-5,5-5h75.713
		c2.75,0,5,2.25,5,5V30.464z"/>
</g>
<g>
	
		<image overflow="visible" opacity="0.75" width="271" height="118" xlink:href="53C57FBE90475836.png"  transform="matrix(0.24 0 0 0.24 11.9277 5.2119)">
	</image>
	<g>
		<g>
			<path fill="#FFFFFF" d="M16.569,31.533h-3.741V6.712h5.369l3.486,17.83l3.347-17.83h5.157v24.821h-3.741V15.936l-3.245,15.598
				h-3.009l-3.623-15.558V31.533z"/>
			<path fill="#FFFFFF" d="M33.532,31.533V6.712h10.649v3.761h-6.908v6.77h5.048v3.761h-5.048v6.77h6.908v3.761H33.532z"/>
			<path fill="#FFFFFF" d="M50.954,6.712l4.965,16.682V6.712h3.741v24.821h-4.019l-5.146-15.895v15.895h-3.741V6.712H50.954z"/>
			<path fill="#FFFFFF" d="M68.903,31.811c-1.649,0-3.049-0.574-4.196-1.723c-1.148-1.147-1.723-2.54-1.723-4.176V6.731h3.662
				v19.141c0,0.594,0.211,1.099,0.634,1.515c0.422,0.415,0.93,0.623,1.523,0.623c0.595,0,1.099-0.208,1.515-0.623
				c0.416-0.416,0.623-0.921,0.623-1.515V6.731h3.899v19.181c0,1.662-0.58,3.062-1.741,4.196S70.539,31.811,68.903,31.811z"/>
		</g>
	</g>
</g>
</svg>
