<?xml version="1.0" encoding="utf-8"?>
<!-- Generator: Adobe Illustrator 16.0.4, SVG Export Plug-In . SVG Version: 6.00 Build 0)  -->
<!DOCTYPE svg PUBLIC "-//W3C//DTD SVG 1.1//EN" "http://www.w3.org/Graphics/SVG/1.1/DTD/svg11.dtd">
<svg version="1.1" id="Layer_1" xmlns="http://www.w3.org/2000/svg" xmlns:xlink="http://www.w3.org/1999/xlink" x="0px" y="0px"
	 width="240px" height="43.623px" viewBox="0 0 240 43.623" enable-background="new 0 0 240 43.623" xml:space="preserve">
<g>
	<path fill="#FFFFFF" d="M-0.001,36.581c4.462,0,6.642,1.664,8.95,3.425c2.331,1.778,4.741,3.616,9.506,3.616
		s7.176-1.838,9.507-3.616c2.308-1.761,4.487-3.425,8.95-3.425s6.643,1.664,8.951,3.425c2.331,1.778,4.741,3.616,9.507,3.616
		c4.767,0,7.178-1.838,9.509-3.616c2.308-1.761,4.489-3.425,8.953-3.425c4.463,0,6.643,1.664,8.951,3.425
		c2.331,1.778,4.741,3.616,9.508,3.616s7.177-1.838,9.509-3.616c2.308-1.761,4.488-3.425,8.952-3.425s6.644,1.664,8.952,3.425
		c2.332,1.778,4.742,3.616,9.509,3.616s7.178-1.838,9.51-3.616c2.311-1.761,4.488-3.425,8.953-3.425
		c4.463,0,6.643,1.664,8.951,3.425c2.33,1.778,4.74,3.616,9.508,3.616s7.178-1.838,9.51-3.616c2.311-1.761,4.49-3.425,8.953-3.425
		c4.465,0,6.646,1.664,8.955,3.425c2.332,1.778,4.744,3.616,9.512,3.616c4.77,0,7.182-1.838,9.514-3.616
		c2.311-1.761,4.488-3.425,8.955-3.425c4.465,0,6.646,1.664,8.955,3.425c2.33,1.778,4.742,3.616,9.514,3.616V0H-0.001V36.581z"/>
</g>
<g enable-background="new    ">
	<path d="M16.774,22.227v7.543H14.09V11.972h2.685v7.557h3.239v-7.557h2.685V29.77h-2.685v-7.543H16.774z"/>
	<path d="M29.317,11.744c1.184,0,2.19,0.417,3.019,1.25s1.243,1.837,1.243,3.011v9.717c0,1.184-0.417,2.189-1.25,3.018
		c-0.833,0.829-1.837,1.243-3.011,1.243c-1.184,0-2.188-0.416-3.011-1.25c-0.824-0.833-1.236-1.837-1.236-3.011v-9.717
		c0-1.184,0.417-2.189,1.25-3.018C27.153,12.158,28.152,11.744,29.317,11.744z M30.78,15.948c0-0.426-0.149-0.788-0.447-1.086
		c-0.298-0.299-0.661-0.448-1.086-0.448c-0.426,0-0.791,0.149-1.094,0.448c-0.303,0.298-0.455,0.66-0.455,1.086v9.744
		c0,0.427,0.151,0.789,0.455,1.087c0.303,0.299,0.667,0.447,1.094,0.447c0.426,0,0.788-0.148,1.086-0.447
		c0.298-0.298,0.447-0.66,0.447-1.087V15.948z"/>
	<path d="M38.621,29.77h-2.685V11.957h3.853l2.502,12.796l2.402-12.796h3.701V29.77h-2.685V18.576L43.379,29.77H41.22l-2.6-11.165
		V29.77z"/>
	<path d="M50.793,29.77V11.957h7.642v2.699h-4.958v4.857H57.1v2.699h-3.622v4.857h4.958v2.699H50.793z"/>
</g>
<g enable-background="new    ">
	<path d="M87.018,25.338c0.019,1.24-0.303,2.301-0.966,3.182c-0.436,0.597-1.051,1.018-1.847,1.265
		c-0.426,0.132-0.923,0.198-1.492,0.198c-1.051,0-1.922-0.26-2.614-0.781c-0.578-0.426-1.035-1.006-1.371-1.74
		c-0.336-0.733-0.533-1.574-0.589-2.521l2.557-0.186c0.114,1.038,0.388,1.79,0.824,2.256c0.322,0.353,0.691,0.52,1.108,0.5
		c0.587-0.019,1.056-0.308,1.406-0.867c0.18-0.274,0.27-0.668,0.27-1.18c0-0.739-0.336-1.474-1.008-2.204
		c-0.53-0.502-1.326-1.256-2.386-2.26c-0.891-0.863-1.52-1.636-1.889-2.318c-0.398-0.768-0.597-1.602-0.597-2.502
		c0-1.62,0.544-2.848,1.633-3.683c0.672-0.502,1.506-0.753,2.5-0.753c0.957,0,1.776,0.213,2.458,0.639
		c0.53,0.332,0.959,0.796,1.286,1.393s0.523,1.283,0.589,2.06l-2.571,0.469c-0.076-0.729-0.284-1.298-0.625-1.705
		c-0.246-0.293-0.601-0.439-1.065-0.439c-0.493,0-0.867,0.218-1.123,0.653c-0.208,0.35-0.312,0.786-0.312,1.307
		c0,0.814,0.351,1.643,1.051,2.485c0.265,0.322,0.663,0.701,1.193,1.137c0.625,0.521,1.037,0.886,1.236,1.094
		c0.663,0.663,1.174,1.316,1.534,1.96c0.17,0.304,0.308,0.583,0.412,0.838C86.875,24.268,87.008,24.836,87.018,25.338z"/>
	<path d="M93.466,29.997c-1.184,0-2.19-0.414-3.019-1.243c-0.829-0.828-1.243-1.83-1.243-3.004v-9.716
		c0-1.185,0.417-2.19,1.25-3.019c0.833-0.829,1.837-1.243,3.011-1.243c1.184,0,2.188,0.417,3.011,1.25
		c0.824,0.833,1.236,1.837,1.236,3.012v2.031h-2.784v-2.089c0-0.426-0.152-0.79-0.455-1.094c-0.303-0.303-0.668-0.454-1.094-0.454
		c-0.426,0-0.789,0.151-1.087,0.454c-0.298,0.304-0.447,0.668-0.447,1.094v9.745c0,0.426,0.149,0.788,0.447,1.086
		c0.298,0.299,0.661,0.447,1.087,0.447c0.426,0,0.791-0.148,1.094-0.447c0.303-0.298,0.455-0.66,0.455-1.086v-2.458h2.784v2.486
		c0,1.184-0.417,2.188-1.25,3.011C95.63,29.585,94.631,29.997,93.466,29.997z"/>
	<path d="M102.599,22.227v7.543h-2.685V11.972h2.685v7.557h3.239v-7.557h2.685V29.77h-2.685v-7.543H102.599z"/>
	<path d="M110.923,29.77V11.957h7.642v2.699h-4.958v4.857h3.622v2.699h-3.622v4.857h4.958v2.699H110.923z"/>
	<path d="M128.849,25.508c0,1.175-0.412,2.179-1.235,3.012c-0.824,0.833-1.818,1.25-2.983,1.25h-4.219V11.957h4.219
		c1.174,0,2.171,0.417,2.99,1.25s1.229,1.832,1.229,2.997V25.508z M123.096,27.113h1.619c0.426,0,0.786-0.154,1.08-0.462
		c0.293-0.308,0.439-0.67,0.439-1.086v-9.318c0-0.427-0.148-0.791-0.447-1.094c-0.298-0.304-0.655-0.455-1.072-0.455h-1.619V27.113z
		"/>
	<path d="M135.439,29.969c-1.184,0-2.188-0.412-3.012-1.236c-0.823-0.823-1.235-1.822-1.235-2.997V11.972h2.628v13.735
		c0,0.426,0.151,0.788,0.455,1.087c0.303,0.298,0.667,0.447,1.094,0.447c0.426,0,0.787-0.149,1.086-0.447
		c0.299-0.299,0.447-0.661,0.447-1.087V11.972h2.799v13.764c0,1.193-0.417,2.197-1.25,3.012
		C137.617,29.562,136.613,29.969,135.439,29.969z"/>
	<path d="M149.402,29.77h-7.315V11.972h2.685v15.127h4.631V29.77z"/>
	<path d="M151.248,29.77V11.957h7.643v2.699h-4.957v4.857h3.621v2.699h-3.621v4.857h4.957v2.699H151.248z"/>
</g>
<g enable-background="new    ">
	<path d="M176.988,11.971c1.307,0,2.35,0.411,3.125,1.235c0.721,0.786,1.08,1.79,1.08,3.012v2.585c0,1.174-0.41,2.178-1.229,3.012
		c-0.819,0.833-1.812,1.25-2.977,1.25h-1.548v6.704h-2.685V11.971H176.988z M178.594,16.26c0-0.464-0.14-0.838-0.419-1.122
		s-0.651-0.426-1.115-0.426h-1.619v5.696h1.619c0.427,0,0.788-0.151,1.087-0.455c0.299-0.303,0.447-0.668,0.447-1.094V16.26z"/>
	<path d="M187.57,11.971c1.496,0,2.596,0.411,3.296,1.235c0.616,0.72,0.923,1.724,0.923,3.012v2.585c0,1.26-0.479,2.325-1.434,3.196
		l1.988,7.77h-2.904l-1.627-6.704c-0.076,0-0.156,0-0.242,0h-1.548v6.704h-2.685V11.971H187.57z M189.176,16.26
		c0-1.032-0.512-1.548-1.534-1.548h-1.619v5.696h1.619c0.427,0,0.788-0.151,1.087-0.455c0.299-0.303,0.447-0.668,0.447-1.094V16.26z
		"/>
	<path d="M197.329,29.769h-2.685V11.971h2.685V29.769z"/>
	<path d="M203.963,29.996c-1.184,0-2.19-0.414-3.02-1.243c-0.828-0.828-1.242-1.83-1.242-3.004v-9.716
		c0-1.185,0.416-2.19,1.25-3.019c0.833-0.829,1.837-1.243,3.012-1.243c1.184,0,2.188,0.417,3.011,1.25
		c0.824,0.833,1.235,1.837,1.235,3.012v2.031h-2.783v-2.089c0-0.426-0.152-0.79-0.455-1.094c-0.303-0.303-0.668-0.454-1.094-0.454
		s-0.788,0.151-1.086,0.454c-0.299,0.304-0.447,0.668-0.447,1.094v9.745c0,0.426,0.148,0.788,0.447,1.086
		c0.298,0.299,0.66,0.447,1.086,0.447s0.791-0.148,1.094-0.447c0.303-0.298,0.455-0.66,0.455-1.086v-2.458h2.783v2.486
		c0,1.184-0.416,2.188-1.25,3.011C206.127,29.584,205.127,29.996,203.963,29.996z"/>
	<path d="M210.411,29.769V11.956h7.642v2.699h-4.957v4.857h3.622v2.699h-3.622v4.857h4.957v2.699H210.411z"/>
	<path d="M228.777,25.337c0.019,1.24-0.303,2.301-0.966,3.182c-0.437,0.597-1.052,1.018-1.847,1.265
		c-0.426,0.132-0.924,0.198-1.492,0.198c-1.051,0-1.922-0.26-2.613-0.781c-0.578-0.426-1.035-1.006-1.371-1.74
		c-0.336-0.733-0.532-1.574-0.589-2.521l2.557-0.186c0.114,1.038,0.388,1.79,0.824,2.256c0.321,0.353,0.69,0.52,1.108,0.5
		c0.586-0.019,1.055-0.308,1.406-0.867c0.18-0.274,0.27-0.668,0.27-1.18c0-0.739-0.336-1.474-1.009-2.204
		c-0.53-0.502-1.326-1.256-2.386-2.26c-0.891-0.863-1.521-1.636-1.89-2.318c-0.397-0.768-0.597-1.602-0.597-2.502
		c0-1.62,0.545-2.848,1.633-3.683c0.673-0.502,1.506-0.753,2.5-0.753c0.957,0,1.776,0.213,2.458,0.639
		c0.53,0.332,0.959,0.796,1.286,1.393c0.326,0.597,0.522,1.283,0.589,2.06l-2.571,0.469c-0.076-0.729-0.283-1.298-0.625-1.705
		c-0.246-0.293-0.602-0.439-1.064-0.439c-0.493,0-0.867,0.218-1.123,0.653c-0.208,0.35-0.312,0.786-0.312,1.307
		c0,0.814,0.351,1.643,1.051,2.485c0.266,0.322,0.663,0.701,1.193,1.137c0.625,0.521,1.037,0.886,1.236,1.094
		c0.662,0.663,1.174,1.316,1.534,1.96c0.171,0.304,0.308,0.583,0.411,0.838C228.635,24.267,228.768,24.835,228.777,25.337z"/>
</g>
</svg>
