<?xml version="1.0" encoding="utf-8"?>
<!-- Generator: Adobe Illustrator 16.0.4, SVG Export Plug-In . SVG Version: 6.00 Build 0)  -->
<!DOCTYPE svg PUBLIC "-//W3C//DTD SVG 1.1//EN" "http://www.w3.org/Graphics/SVG/1.1/DTD/svg11.dtd">
<svg version="1.1" id="Layer_1" xmlns="http://www.w3.org/2000/svg" xmlns:xlink="http://www.w3.org/1999/xlink" x="0px" y="0px"
	 width="240px" height="45px" viewBox="0 55 240 45" enable-background="new 0 55 240 45" xml:space="preserve">
<g>
	<path fill="#FFFFFF" d="M0,84.247c4.462,0,6.642,1.172,8.95,2.412c2.331,1.253,4.741,2.548,9.506,2.548s7.176-1.295,9.507-2.548
		c2.308-1.24,4.487-2.412,8.95-2.412s6.643,1.172,8.951,2.412c2.331,1.253,4.741,2.548,9.507,2.548c4.767,0,7.178-1.295,9.509-2.548
		c2.308-1.24,4.489-2.412,8.953-2.412c4.463,0,6.643,1.172,8.951,2.412c2.331,1.253,4.741,2.548,9.508,2.548
		s7.177-1.295,9.509-2.548c2.308-1.24,4.488-2.412,8.952-2.412s6.644,1.172,8.952,2.412c2.331,1.253,4.742,2.548,9.509,2.548
		c4.769,0,7.179-1.295,9.511-2.548c2.309-1.24,4.488-2.412,8.952-2.412s6.644,1.172,8.951,2.412
		c2.331,1.253,4.741,2.548,9.509,2.548s7.178-1.295,9.51-2.548c2.31-1.24,4.49-2.412,8.953-2.412c4.465,0,6.646,1.172,8.955,2.412
		c2.332,1.253,4.743,2.548,9.512,2.548s7.181-1.295,9.513-2.548c2.31-1.24,4.489-2.412,8.955-2.412c4.465,0,6.646,1.172,8.955,2.412
		c2.331,1.253,4.743,2.548,9.513,2.548V55H0V84.247z"/>
</g>
</svg>
