<?xml version="1.0" encoding="utf-8"?>
<!-- Generator: Adobe Illustrator 16.0.4, SVG Export Plug-In . SVG Version: 6.00 Build 0)  -->
<!DOCTYPE svg PUBLIC "-//W3C//DTD SVG 1.1//EN" "http://www.w3.org/Graphics/SVG/1.1/DTD/svg11.dtd">
<svg version="1.1" id="Layer_1" xmlns="http://www.w3.org/2000/svg" xmlns:xlink="http://www.w3.org/1999/xlink" x="0px" y="0px"
	 width="216px" height="38.93px" viewBox="0 0 216 38.93" enable-background="new 0 0 216 38.93" xml:space="preserve">
<path opacity="0.5" fill="#00A4D8" enable-background="new    " d="M187.023,27.631c1.363,5.001,6.106,8.862,11.752,8.862
	c5.64,0,10.613-3.689,11.752-8.959c1.416-6.568-2.584-10.964-2.584-10.964c-2.619-3.782-6.43-8.021-9.168-14.57
	c-3.342,6.755-6.948,10.899-9.355,14.525C189.42,16.527,185.562,21.941,187.023,27.631z"/>
<g enable-background="new    ">
	<path d="M54.765,3.093c-0.265,1.745-0.674,3.74-1.229,5.986c-0.555,2.247-1.229,4.553-2.021,6.918
		c-0.793,2.363-1.692,4.689-2.696,6.977c-1.005,2.286-2.095,4.321-3.271,6.105c-1.176,1.781-2.425,3.224-3.746,4.318
		c-1.322,1.099-2.683,1.646-4.083,1.646c-0.925,0-1.691-0.267-2.299-0.793c-0.608-0.528-1.097-1.255-1.467-2.182
		c-0.978,0.927-1.962,1.651-2.953,2.182s-1.976,0.793-2.954,0.793c-1.189,0-2.107-0.403-2.755-1.209
		c-0.648-0.809-1.064-1.87-1.249-3.191c-0.186-1.319-0.172-2.834,0.04-4.539c0.211-1.704,0.588-3.462,1.13-5.271
		c0.541-1.812,1.222-3.603,2.042-5.371c0.819-1.771,1.73-3.383,2.735-4.837c1.004-1.453,2.081-2.684,3.23-3.688
		c1.15-1.004,2.333-1.639,3.548-1.9c-0.661-0.291-1.421-0.489-2.28-0.597c-0.859-0.104-1.751-0.157-2.676-0.157
		c-2.273,0-4.281,0.51-6.025,1.524c-1.744,1.02-3.218,2.286-4.42,3.808c-1.203,1.521-2.134,3.163-2.794,4.936
		c-0.661,1.771-1.058,3.416-1.189,4.936c-0.132,1.521,0,2.789,0.396,3.808c0.396,1.018,1.057,1.524,1.982,1.524
		c0.422,0,0.779-0.15,1.07-0.456c0.291-0.304,0.429-0.641,0.417-1.011c-0.014-0.37-0.198-0.707-0.555-1.011
		s-0.945-0.456-1.764-0.456c0-0.714,0.278-1.274,0.833-1.685c0.555-0.41,1.169-0.621,1.843-0.637
		c0.674-0.013,1.289,0.192,1.844,0.614c0.555,0.424,0.833,1.11,0.833,2.062c0,0.635-0.146,1.209-0.436,1.725
		c-0.292,0.516-0.674,0.958-1.15,1.328c-0.476,0.37-1.018,0.661-1.625,0.872c-0.608,0.212-1.229,0.315-1.863,0.315
		c-1.56,0-2.822-0.337-3.786-1.011c-0.965-0.674-1.645-1.565-2.042-2.676c-0.396-1.11-0.521-2.379-0.376-3.807
		c0.145-1.429,0.528-2.873,1.149-4.342c0.621-1.467,1.473-2.914,2.557-4.341c1.083-1.428,2.372-2.696,3.865-3.806
		c1.493-1.11,3.184-2.002,5.074-2.678c1.889-0.675,3.944-1.012,6.164-1.012c1.506,0,2.927,0.188,4.262,0.558
		c1.334,0.369,2.464,0.949,3.39,1.743c-0.027,0.025-0.066,0.038-0.119,0.038c-0.053,0-0.106,0.009-0.159,0.021
		s-0.106,0.02-0.159,0.02c-0.688,0.158-1.414,0.683-2.18,1.565c-0.767,0.886-1.526,1.989-2.279,3.311
		c-0.753,1.322-1.48,2.811-2.18,4.46c-0.701,1.651-1.328,3.323-1.883,5.017c-0.555,1.69-1.024,3.337-1.407,4.936
		c-0.383,1.602-0.628,3.026-0.733,4.281c-0.106,1.256-0.06,2.26,0.139,3.013c0.199,0.753,0.601,1.13,1.209,1.13
		c0.925,0,2.181-0.857,3.766-2.575c-0.185-1.109-0.238-2.378-0.159-3.808c0.08-1.427,0.258-2.913,0.535-4.459
		c0.278-1.547,0.654-3.118,1.13-4.718c0.476-1.599,1.031-3.132,1.665-4.599c0.634-1.469,1.321-2.82,2.062-4.063
		c0.74-1.242,1.526-2.299,2.359-3.171c0.833-0.872,1.698-1.5,2.596-1.884c0.898-0.383,1.797-0.441,2.696-0.179
		c0.74,0.213,1.156,0.794,1.249,1.743c0.092,0.951-0.04,2.114-0.396,3.488c-0.357,1.375-0.899,2.907-1.625,4.6
		c-0.727,1.69-1.526,3.391-2.398,5.095c-0.872,1.705-1.771,3.351-2.696,4.936c-0.925,1.586-1.784,2.976-2.577,4.163
		c-0.132,1.612-0.093,2.92,0.119,3.924c0.211,1.005,0.66,1.507,1.348,1.507c0.555,0,1.215-0.377,1.982-1.13
		c0.766-0.753,1.572-1.804,2.418-3.149c0.846-1.35,1.711-2.946,2.597-4.797c0.885-1.852,1.737-3.879,2.557-6.085
		c0.819-2.206,1.572-4.554,2.26-7.037c0.687-2.483,1.255-5.021,1.705-7.611L54.765,3.093L54.765,3.093z M45.727,5.194
		c-0.344-0.104-0.733,0.112-1.169,0.654S43.672,7.15,43.21,8.127c-0.463,0.978-0.938,2.114-1.427,3.409
		c-0.489,1.295-0.952,2.636-1.388,4.021s-0.833,2.775-1.189,4.163c-0.357,1.387-0.641,2.649-0.853,3.785
		c0.502-0.846,1.077-1.869,1.725-3.072c0.647-1.202,1.294-2.464,1.942-3.785c0.647-1.319,1.255-2.643,1.824-3.965
		c0.568-1.319,1.043-2.521,1.427-3.605c0.382-1.083,0.627-1.978,0.733-2.678C46.11,5.702,46.017,5.3,45.727,5.194z"/>
	<path d="M58.451,16.532c1.004,0,1.784,0.189,2.339,0.572c0.555,0.386,0.938,0.912,1.149,1.586c0.211,0.676,0.264,1.469,0.159,2.379
		c-0.106,0.911-0.304,1.885-0.595,2.913c-0.317,1.031-0.753,2.002-1.308,2.914c-0.555,0.912-1.169,1.705-1.844,2.379
		c-0.674,0.676-1.381,1.202-2.121,1.585c-0.74,0.386-1.467,0.575-2.18,0.575c-1.005,0-1.784-0.189-2.339-0.575
		c-0.555-0.383-0.938-0.909-1.15-1.585c-0.212-0.674-0.264-1.467-0.159-2.379s0.304-1.883,0.595-2.914
		c0.291-1.028,0.707-2.002,1.249-2.913c0.541-0.91,1.149-1.703,1.823-2.379c0.674-0.674,1.388-1.2,2.141-1.586
		C56.965,16.723,57.711,16.532,58.451,16.532z M54.686,29.772c0.317,0,0.654-0.275,1.011-0.832c0.357-0.556,0.707-1.255,1.05-2.102
		c0.343-0.846,0.654-1.75,0.932-2.716c0.278-0.964,0.482-1.869,0.615-2.715c0.132-0.848,0.171-1.548,0.119-2.104
		c-0.053-0.555-0.251-0.832-0.595-0.832c-0.344,0-0.7,0.277-1.07,0.832c-0.37,0.556-0.72,1.256-1.05,2.104
		c-0.331,0.846-0.621,1.751-0.872,2.715c-0.251,0.966-0.436,1.87-0.555,2.716c-0.119,0.847-0.152,1.546-0.099,2.102
		C54.223,29.495,54.394,29.772,54.686,29.772z"/>
	<path d="M69.194,19.306c-0.212,0-0.436,0.126-0.674,0.377s-0.463,0.568-0.674,0.951c-0.212,0.384-0.423,0.812-0.634,1.289
		c-0.212,0.476-0.41,0.938-0.594,1.387l-2.498,8.325h-3.607l4.519-15.104h3.607l-0.753,2.495c0.528-0.737,1.09-1.341,1.685-1.804
		c0.595-0.462,1.235-0.691,1.923-0.691c0.845,0,1.368,0.304,1.566,0.909c0.198,0.608,0.204,1.362,0.02,2.262
		c-0.185,0.897-0.476,1.883-0.872,2.954c-0.396,1.068-0.76,2.055-1.09,2.951c-0.331,0.898-0.549,1.651-0.654,2.262
		c-0.106,0.605,0.053,0.909,0.476,0.909c0.211,0,0.548-0.117,1.011-0.354c0.462-0.238,0.853-0.7,1.169-1.388h0.555
		c-0.317,0.817-0.688,1.514-1.11,2.081c-0.423,0.567-0.866,1.029-1.328,1.388c-0.463,0.354-0.912,0.614-1.348,0.771
		c-0.436,0.158-0.826,0.237-1.169,0.237c-0.898,0-1.466-0.304-1.705-0.911c-0.238-0.606-0.291-1.359-0.158-2.26
		c0.132-0.898,0.383-1.877,0.753-2.934c0.37-1.059,0.72-2.035,1.051-2.936c0.33-0.896,0.575-1.649,0.733-2.26
		C69.551,19.611,69.485,19.306,69.194,19.306z"/>
	<path d="M82.989,26.363c-0.317,1.007-0.436,1.646-0.356,1.925c0.079,0.275,0.238,0.44,0.476,0.495
		c0.291,0.077,0.647-0.021,1.07-0.299c0.422-0.275,0.793-0.76,1.11-1.445h0.674c-0.317,0.817-0.693,1.514-1.129,2.081
		c-0.437,0.567-0.886,1.029-1.348,1.388c-0.462,0.354-0.912,0.614-1.348,0.771c-0.436,0.158-0.827,0.237-1.169,0.237
		c-0.529,0-1.005-0.145-1.427-0.436c-0.423-0.291-0.661-0.858-0.713-1.705c-0.529,0.606-1.164,1.117-1.903,1.524
		c-0.74,0.41-1.48,0.614-2.22,0.614c-0.529,0-0.958-0.164-1.289-0.495c-0.331-0.33-0.535-0.833-0.614-1.507
		c-0.079-0.674-0.006-1.526,0.218-2.557c0.224-1.031,0.64-2.233,1.249-3.607c0.422-0.978,0.932-1.863,1.526-2.656
		c0.594-0.793,1.249-1.479,1.962-2.062c0.713-0.581,1.453-1.044,2.22-1.388c0.766-0.345,1.532-0.581,2.299-0.715l2.735-9.116h3.607
		c-0.952,3.172-1.811,6.063-2.577,8.682c-0.317,1.11-0.641,2.227-0.971,3.35c-0.331,1.124-0.634,2.154-0.912,3.095
		c-0.277,0.938-0.522,1.744-0.733,2.418C83.213,25.63,83.069,26.099,82.989,26.363z M78.985,27.632
		c0.053-0.211,0.099-0.416,0.139-0.614s0.099-0.416,0.179-0.652l2.339-7.771c-0.159-0.08-0.344-0.119-0.555-0.119
		c-0.423,0-0.859,0.244-1.308,0.733c-0.45,0.487-0.872,1.107-1.269,1.861c-0.396,0.755-0.76,1.562-1.09,2.42
		c-0.331,0.857-0.568,1.663-0.713,2.418c-0.146,0.753-0.185,1.375-0.119,1.861c0.066,0.489,0.271,0.733,0.615,0.733
		c0.291,0,0.614-0.112,0.971-0.337S78.8,27.764,78.985,27.632z"/>
	<path d="M93.97,16.532c0.872,0,1.519,0.251,1.942,0.753c0.422,0.502,0.641,1.115,0.654,1.844c0.013,0.727-0.152,1.513-0.495,2.356
		c-0.344,0.848-0.839,1.612-1.487,2.301c-0.648,0.688-1.427,1.234-2.339,1.646s-1.923,0.549-3.033,0.416
		c-0.079,1.005,0,1.853,0.238,2.537c0.238,0.688,0.727,1.031,1.467,1.031c0.872,0,1.698-0.271,2.478-0.812
		c0.779-0.542,1.473-1.154,2.082-1.844c0.687-0.793,1.321-1.691,1.903-2.695h0.634c-0.634,1.4-1.388,2.63-2.26,3.688
		c-0.371,0.476-0.78,0.932-1.229,1.367c-0.45,0.437-0.938,0.824-1.467,1.17c-0.529,0.344-1.097,0.621-1.705,0.832
		c-0.608,0.212-1.242,0.315-1.903,0.315c-1.242,0-2.2-0.37-2.874-1.108c-0.674-0.739-1.084-1.658-1.229-2.755
		c-0.146-1.099-0.059-2.292,0.258-3.59c0.317-1.294,0.853-2.488,1.605-3.587c0.753-1.097,1.698-2.016,2.834-2.756
		C91.182,16.902,92.49,16.532,93.97,16.532z M93.138,17.641c-0.344,0-0.708,0.212-1.09,0.635c-0.383,0.425-0.747,0.967-1.09,1.625
		c-0.344,0.661-0.654,1.401-0.932,2.222c-0.277,0.818-0.495,1.626-0.654,2.419c0.449,0.158,0.892,0.099,1.328-0.181
		c0.436-0.276,0.838-0.674,1.209-1.188c0.37-0.515,0.694-1.09,0.971-1.727c0.277-0.634,0.476-1.232,0.595-1.804
		c0.119-0.565,0.159-1.043,0.119-1.427C93.554,17.834,93.401,17.641,93.138,17.641z"/>
	<path d="M102.929,16.532l-0.555,1.781l3.41-2.259c-0.159,0.951-0.166,1.687-0.02,2.2c0.145,0.515,0.376,0.886,0.694,1.109
		c0.317,0.225,0.687,0.315,1.11,0.275c0.422-0.039,0.833-0.149,1.229-0.337c-0.846,1.005-1.665,1.751-2.458,2.24
		s-1.5,0.753-2.121,0.793c-0.622,0.039-1.137-0.146-1.546-0.557c-0.41-0.408-0.667-1.035-0.773-1.884L98.41,31.635h-3.607
		l4.519-15.104L102.929,16.532L102.929,16.532z"/>
	<path d="M121.006,8.881c0.846,0.291,1.605,0.396,2.279,0.317c0.674-0.079,1.215-0.277,1.625-0.597
		c0.41-0.316,0.699-0.7,0.873-1.147c0.171-0.449,0.184-0.895,0.039-1.328c-0.146-0.438-0.456-0.833-0.932-1.189
		c-0.478-0.354-1.123-0.601-1.942-0.731c-1.269-0.158-2.339,0.024-3.212,0.555c-0.871,0.529-1.446,1.263-1.725,2.2
		c-0.277,0.938-0.205,1.98,0.219,3.132c0.422,1.15,1.295,2.254,2.617,3.311c1.637,1.321,2.84,2.811,3.605,4.46
		c0.768,1.651,1.169,3.316,1.209,4.994c0.039,1.681-0.26,3.291-0.895,4.837c-0.633,1.548-1.523,2.896-2.676,4.043
		c-1.148,1.15-2.537,2.028-4.162,2.639c-1.625,0.605-3.416,0.793-5.371,0.555c-1.957-0.237-3.527-0.832-4.718-1.783
		c-1.189-0.952-2.048-2.075-2.577-3.37c-0.529-1.295-0.733-2.661-0.614-4.103c0.119-1.44,0.501-2.775,1.149-4.004
		c0.647-1.229,1.546-2.24,2.696-3.033c1.149-0.793,2.503-1.188,4.063-1.188c1.029,0,1.875,0.204,2.537,0.614
		c0.659,0.41,1.161,0.918,1.506,1.525c0.344,0.606,0.521,1.269,0.535,1.98c0.014,0.715-0.125,1.375-0.416,1.982
		c-0.291,0.608-0.729,1.116-1.31,1.526c-0.582,0.408-1.295,0.602-2.142,0.572c0.316-0.501,0.449-0.989,0.396-1.467
		c-0.053-0.476-0.219-0.892-0.496-1.248c-0.275-0.355-0.641-0.635-1.09-0.833s-0.938-0.271-1.467-0.218
		c-0.819,0.026-1.508,0.311-2.062,0.853c-0.556,0.542-0.972,1.218-1.25,2.021c-0.277,0.807-0.39,1.679-0.337,2.616
		c0.053,0.938,0.297,1.83,0.733,2.676c0.436,0.847,1.065,1.573,1.883,2.181c0.818,0.608,1.861,0.991,3.132,1.149
		c1.296,0.159,2.483,0,3.567-0.478c1.082-0.476,2.021-1.161,2.814-2.062c0.793-0.898,1.405-1.937,1.844-3.111
		c0.437-1.175,0.646-2.379,0.633-3.606c-0.014-1.229-0.282-2.424-0.812-3.587c-0.528-1.163-1.36-2.167-2.497-3.015
		c-1.138-0.872-2.035-1.844-2.695-2.914c-0.66-1.068-1.084-2.151-1.269-3.251c-0.187-1.096-0.14-2.166,0.14-3.211
		c0.276-1.044,0.778-1.969,1.506-2.772c0.727-0.809,1.678-1.453,2.854-1.942s2.557-0.731,4.143-0.731
		c1.295,0,2.379,0.251,3.252,0.753c0.871,0.502,1.531,1.137,1.982,1.9c0.447,0.77,0.698,1.586,0.752,2.458
		c0.053,0.872-0.105,1.691-0.476,2.458c-0.371,0.769-0.938,1.401-1.705,1.902c-0.769,0.503-1.731,0.754-2.896,0.754
		c-0.74,0-1.354-0.146-1.843-0.438c-0.489-0.288-0.854-0.646-1.092-1.068c-0.235-0.422-0.351-0.865-0.336-1.328
		C120.604,9.628,120.741,9.224,121.006,8.881z"/>
	<path d="M133.689,16.532l-0.752,2.535c0.526-0.767,1.09-1.381,1.685-1.844c0.595-0.462,1.235-0.691,1.923-0.691
		c0.846,0,1.367,0.304,1.566,0.909c0.197,0.608,0.211,1.362,0.039,2.262c-0.172,0.898-0.457,1.883-0.854,2.954
		c-0.396,1.068-0.76,2.055-1.091,2.951c-0.33,0.898-0.548,1.651-0.653,2.262c-0.104,0.605,0.04,0.911,0.438,0.911
		c0.289,0,0.654-0.119,1.09-0.356c0.436-0.238,0.812-0.7,1.129-1.388h0.635c-0.316,0.817-0.688,1.514-1.109,2.081
		c-0.424,0.567-0.864,1.029-1.326,1.388c-0.465,0.354-0.912,0.614-1.35,0.771c-0.437,0.158-0.826,0.237-1.17,0.237
		c-0.688,0-1.184-0.171-1.486-0.516c-0.305-0.343-0.477-0.808-0.516-1.389c-0.039-0.579,0.021-1.233,0.178-1.963
		c0.16-0.727,0.363-1.473,0.615-2.237c0.252-0.769,0.516-1.515,0.793-2.24c0.277-0.729,0.508-1.381,0.693-1.962
		s0.297-1.044,0.337-1.39c0.04-0.343-0.046-0.516-0.257-0.516c-0.213,0-0.443,0.166-0.694,0.496s-0.509,0.74-0.772,1.229
		c-0.266,0.489-0.516,1.013-0.754,1.566c-0.236,0.555-0.447,1.07-0.635,1.546l-4.32,14.392h-3.566l6.621-22.002L133.689,16.532
		L133.689,16.532z"/>
	<path d="M141.977,26.363c-0.316,1.007-0.438,1.646-0.355,1.925c0.079,0.275,0.227,0.44,0.438,0.495
		c0.291,0.077,0.652-0.021,1.09-0.299c0.437-0.275,0.812-0.76,1.131-1.445h0.634c-0.317,0.817-0.688,1.514-1.11,2.081
		s-0.865,1.029-1.328,1.388c-0.461,0.354-0.91,0.614-1.348,0.771c-0.436,0.158-0.826,0.237-1.169,0.237
		c-0.37,0-0.722-0.072-1.052-0.218c-0.33-0.146-0.594-0.402-0.791-0.773c-0.199-0.367-0.299-0.892-0.299-1.563
		s0.158-1.539,0.477-2.599L144,7.414h3.607c-0.951,3.172-1.812,6.063-2.578,8.682c-0.344,1.11-0.68,2.229-1.01,3.35
		c-0.332,1.124-0.637,2.154-0.912,3.095c-0.277,0.938-0.518,1.744-0.713,2.418C142.193,25.63,142.055,26.099,141.977,26.363z"/>
	<path d="M156.921,16.888c-0.423,1.401-0.819,2.723-1.188,3.964c-0.316,1.06-0.635,2.108-0.95,3.152
		c-0.317,1.044-0.556,1.83-0.716,2.356c-0.314,1.007-0.436,1.646-0.354,1.925c0.08,0.275,0.226,0.44,0.438,0.493
		c0.289,0.079,0.666-0.02,1.129-0.297c0.463-0.275,0.854-0.76,1.17-1.445H157c-0.316,0.817-0.688,1.514-1.109,2.081
		c-0.424,0.567-0.865,1.029-1.328,1.388c-0.463,0.354-0.912,0.614-1.348,0.771c-0.438,0.158-0.826,0.237-1.17,0.237
		c-0.477,0-0.926-0.139-1.348-0.416c-0.424-0.277-0.661-0.839-0.713-1.685c-0.558,0.581-1.203,1.077-1.943,1.484
		c-0.74,0.41-1.467,0.614-2.18,0.614c-0.504,0-0.926-0.164-1.271-0.495c-0.344-0.33-0.555-0.833-0.634-1.507
		s-0.007-1.526,0.218-2.557c0.227-1.031,0.643-2.233,1.249-3.607c0.606-1.399,1.39-2.597,2.341-3.588
		c0.949-0.991,1.963-1.764,3.031-2.319c1.07-0.555,2.143-0.885,3.211-0.988C155.077,16.346,156.049,16.492,156.921,16.888z
		 M150.104,27.672c0.078-0.396,0.197-0.833,0.355-1.311l2.34-7.81c-0.158-0.053-0.318-0.079-0.477-0.079
		c-0.424,0-0.859,0.244-1.309,0.733c-0.451,0.487-0.871,1.107-1.27,1.861c-0.396,0.754-0.762,1.562-1.092,2.418
		c-0.332,0.859-0.567,1.665-0.715,2.419c-0.145,0.754-0.185,1.375-0.117,1.862c0.064,0.489,0.271,0.733,0.613,0.733
		c0.266,0,0.557-0.101,0.873-0.297C149.625,28.007,149.891,27.83,150.104,27.672z"/>
	<path d="M163.184,22.399c1.137,0.74,1.885,1.634,2.24,2.678c0.357,1.044,0.391,2.041,0.1,2.991
		c-0.291,0.951-0.896,1.766-1.822,2.438c-0.926,0.674-2.114,1.011-3.567,1.011c-0.634,0-1.223-0.132-1.765-0.396
		c-0.541-0.266-0.99-0.614-1.35-1.052c-0.354-0.437-0.602-0.918-0.73-1.445c-0.135-0.528-0.104-1.059,0.078-1.586
		c0.188-0.607,0.469-1.07,0.854-1.39c0.383-0.314,0.799-0.515,1.247-0.595c0.449-0.079,0.894-0.052,1.328,0.08
		s0.812,0.344,1.13,0.634c0.317,0.291,0.541,0.648,0.674,1.07c0.133,0.423,0.105,0.886-0.078,1.388
		c-0.502-0.476-0.959-0.641-1.367-0.495c-0.409,0.146-0.7,0.396-0.872,0.753c-0.173,0.357-0.197,0.733-0.079,1.132
		c0.117,0.396,0.456,0.634,1.011,0.713c0.636,0.08,1.156-0.072,1.565-0.455c0.408-0.383,0.675-0.859,0.794-1.43
		c0.118-0.565,0.071-1.16-0.14-1.782c-0.213-0.62-0.608-1.145-1.188-1.565c-1.031-0.714-1.752-1.563-2.16-2.557
		c-0.41-0.991-0.503-1.938-0.276-2.835c0.223-0.897,0.758-1.665,1.604-2.301c0.846-0.635,2.009-0.949,3.488-0.949
		c1.293,0,2.285,0.33,2.974,0.988c0.688,0.661,0.897,1.521,0.635,2.577c-0.237,0.793-0.661,1.342-1.27,1.646
		c-0.608,0.304-1.203,0.401-1.783,0.297c-0.582-0.105-1.06-0.39-1.429-0.854c-0.369-0.462-0.409-1.062-0.118-1.804
		c0.556,0.396,1.022,0.529,1.407,0.396c0.384-0.134,0.642-0.352,0.771-0.654c0.133-0.303,0.112-0.614-0.061-0.931
		c-0.172-0.317-0.549-0.479-1.129-0.479c-0.528,0-0.979,0.166-1.35,0.496c-0.369,0.331-0.613,0.74-0.732,1.229
		c-0.118,0.488-0.078,1.012,0.119,1.565C162.134,21.487,162.55,21.976,163.184,22.399z"/>
	<path d="M176.266,7.414l-3.488,11.732c0.529-0.767,1.104-1.394,1.727-1.883s1.273-0.731,1.962-0.731
		c0.872,0,1.401,0.304,1.586,0.909c0.187,0.608,0.191,1.362,0.021,2.262c-0.175,0.897-0.457,1.883-0.854,2.954
		c-0.396,1.068-0.76,2.055-1.09,2.951c-0.33,0.898-0.549,1.651-0.652,2.262c-0.105,0.605,0.039,0.911,0.437,0.911
		c0.29,0,0.647-0.119,1.069-0.356c0.424-0.238,0.807-0.7,1.148-1.388h0.637c-0.317,0.817-0.693,1.514-1.133,2.081
		c-0.436,0.567-0.879,1.029-1.326,1.388c-0.449,0.354-0.893,0.614-1.328,0.771c-0.437,0.158-0.826,0.237-1.168,0.237
		c-0.688,0-1.186-0.171-1.487-0.516c-0.304-0.343-0.476-0.808-0.515-1.389c-0.041-0.579,0.02-1.233,0.178-1.963
		c0.158-0.727,0.363-1.473,0.615-2.237c0.25-0.769,0.515-1.515,0.791-2.24c0.277-0.729,0.51-1.381,0.693-1.962
		s0.297-1.044,0.336-1.39c0.04-0.343-0.046-0.516-0.257-0.516c-0.237,0-0.481,0.166-0.731,0.496
		c-0.252,0.33-0.512,0.747-0.773,1.248c-0.264,0.503-0.51,1.031-0.732,1.586c-0.226,0.556-0.431,1.07-0.615,1.546l-2.219,7.453
		h-3.568l7.177-24.222h3.563v0.004H176.266z"/>
</g>
<path fill="#FFFFFF" d="M189.164,21.148c0,0-2.027,10.651,7.854,13.306c0,0-7.119-4.306-5.938-13.306H189.164z"/>
</svg>
