<?xml version="1.0" encoding="utf-8"?>
<!-- Generator: Adobe Illustrator 16.0.4, SVG Export Plug-In . SVG Version: 6.00 Build 0)  -->
<!DOCTYPE svg PUBLIC "-//W3C//DTD SVG 1.1//EN" "http://www.w3.org/Graphics/SVG/1.1/DTD/svg11.dtd">
<svg version="1.1" id="Layer_1" xmlns="http://www.w3.org/2000/svg" xmlns:xlink="http://www.w3.org/1999/xlink" x="0px" y="0px"
	 width="240px" height="130.75px" viewBox="0 0 240 130.75" enable-background="new 0 0 240 130.75" xml:space="preserve">
<g>
	
		<image overflow="visible" opacity="0.75" width="1013" height="541" xlink:href="970FD93148654ED.png"  transform="matrix(0.24 0 0 0.24 -0.8999 -1.5)">
	</image>
	<g>
		<g>
			<path fill="#FFFFFF" d="M0,119.582c4.462,0,6.642,1.664,8.95,3.424c2.331,1.78,4.741,3.617,9.506,3.617s7.176-1.837,9.507-3.617
				c2.308-1.76,4.487-3.424,8.95-3.424s6.643,1.664,8.951,3.424c2.331,1.78,4.741,3.617,9.507,3.617
				c4.767,0,7.178-1.837,9.509-3.617c2.308-1.76,4.489-3.424,8.953-3.424c4.463,0,6.643,1.664,8.951,3.424
				c2.331,1.78,4.741,3.617,9.508,3.617s7.177-1.837,9.509-3.617c2.308-1.76,4.488-3.424,8.952-3.424s6.644,1.664,8.952,3.424
				c2.331,1.78,4.742,3.617,9.509,3.617c4.769,0,7.179-1.837,9.511-3.617c2.31-1.76,4.488-3.424,8.952-3.424
				s6.644,1.664,8.951,3.424c2.331,1.78,4.741,3.617,9.509,3.617s7.178-1.837,9.51-3.617c2.311-1.76,4.49-3.424,8.953-3.424
				c4.465,0,6.646,1.664,8.955,3.424c2.332,1.78,4.743,3.617,9.512,3.617c4.77,0,7.182-1.837,9.514-3.617
				c2.311-1.76,4.488-3.424,8.955-3.424c4.465,0,6.646,1.664,8.955,3.424c2.33,1.78,4.742,3.617,9.513,3.617V0H0V119.582z"/>
		</g>
	</g>
</g>
</svg>
