<?xml version="1.0" encoding="utf-8"?>
<!-- Generator: Adobe Illustrator 16.0.4, SVG Export Plug-In . SVG Version: 6.00 Build 0)  -->
<!DOCTYPE svg PUBLIC "-//W3C//DTD SVG 1.1//EN" "http://www.w3.org/Graphics/SVG/1.1/DTD/svg11.dtd">
<svg version="1.1" id="Layer_1" xmlns="http://www.w3.org/2000/svg" xmlns:xlink="http://www.w3.org/1999/xlink" x="0px" y="0px"
	 width="72px" height="78.833px" viewBox="0 -6.833 72 78.833" enable-background="new 0 -6.833 72 78.833" xml:space="preserve">
<circle fill="#21A1B3" cx="35.51" cy="34.787" r="33"/>
<path fill="#FFFFFF" d="M54.958,25.325c0.018,0.409,0.028,0.819,0.028,1.231c0,12.577-9.576,27.082-27.082,27.082
	c-5.375,0-10.379-1.576-14.591-4.275c0.745,0.087,1.502,0.131,2.271,0.131c4.458,0,8.563-1.521,11.82-4.074
	c-4.166-0.077-7.681-2.827-8.892-6.61c0.582,0.111,1.177,0.172,1.79,0.172c0.868,0,1.709-0.117,2.508-0.335
	c-4.354-0.874-7.635-4.72-7.635-9.333c0-0.041,0-0.08,0.001-0.121c1.282,0.714,2.75,1.142,4.311,1.191
	c-2.554-1.707-4.234-4.62-4.234-7.92c0-1.745,0.469-3.381,1.288-4.786c4.695,5.759,11.709,9.548,19.619,9.945
	c-0.164-0.696-0.247-1.423-0.247-2.169c0-5.256,4.262-9.518,9.519-9.518c2.738,0,5.211,1.156,6.947,3.006
	c2.168-0.426,4.206-1.219,6.045-2.31c-0.712,2.224-2.22,4.089-4.187,5.267c1.928-0.23,3.763-0.742,5.471-1.498
	C58.43,22.307,56.819,23.982,54.958,25.325z"/>
</svg>
